<svg width="1975" height="368" viewBox="0 0 1975 368" fill="none" xmlns="http://www.w3.org/2000/svg">
<path d="M518.352 259.456C503.248 259.456 490 255.616 478.608 247.936C467.344 240.256 459.28 229.696 454.416 216.256C451.472 207.808 450 198.656 450 188.8C450 178.944 451.472 169.792 454.416 161.344C459.28 147.904 467.408 137.344 478.8 129.664C490.192 121.984 503.632 118.144 519.12 118.144C531.024 118.144 541.584 120.256 550.8 124.48C560.144 128.704 567.504 134.784 572.88 142.72C578.384 150.656 581.52 159.936 582.288 170.56H549.648C548.624 163.392 545.36 157.696 539.856 153.472C534.352 149.12 527.44 146.944 519.12 146.944C511.312 146.944 504.464 149.12 498.576 153.472C492.688 157.696 488.4 163.52 485.712 170.944C483.792 175.808 482.832 181.76 482.832 188.8C482.832 195.584 483.792 201.536 485.712 206.656C488.272 213.952 492.496 219.776 498.384 224.128C504.272 228.352 511.056 230.464 518.736 230.464C526.672 230.464 533.2 228.352 538.32 224.128C543.568 219.904 546.704 214.208 547.728 207.04H580.368C579.6 217.28 576.592 226.368 571.344 234.304C566.096 242.24 558.928 248.448 549.84 252.928C540.752 257.28 530.256 259.456 518.352 259.456Z" fill="#313131"/>
<path d="M664.647 259.456C648.647 259.456 634.887 255.68 623.367 248.128C611.847 240.448 603.655 229.824 598.791 216.256C595.847 207.808 594.375 198.656 594.375 188.8C594.375 178.944 595.847 169.792 598.791 161.344C603.655 147.904 611.847 137.344 623.367 129.664C634.887 121.984 648.583 118.144 664.455 118.144C680.455 118.144 694.215 121.984 705.735 129.664C717.255 137.344 725.383 147.904 730.119 161.344C733.191 169.536 734.727 178.688 734.727 188.8C734.727 198.784 733.191 207.936 730.119 216.256C725.255 229.696 717.063 240.256 705.543 247.936C694.151 255.616 680.519 259.456 664.647 259.456ZM664.455 230.464C672.775 230.464 679.943 228.416 685.959 224.32C691.975 220.096 696.327 214.208 699.015 206.656C700.935 201.024 701.895 195.072 701.895 188.8C701.895 182.272 700.935 176.32 699.015 170.944C696.327 163.52 691.975 157.696 685.959 153.472C679.943 149.12 672.775 146.944 664.455 146.944C656.135 146.944 648.967 149.12 642.951 153.472C637.063 157.696 632.775 163.52 630.087 170.944C628.167 175.808 627.207 181.76 627.207 188.8C627.207 195.584 628.167 201.536 630.087 206.656C632.775 214.08 637.063 219.904 642.951 224.128C648.967 228.352 656.135 230.464 664.455 230.464Z" fill="#313131"/>
<path d="M783.48 256H755.064V121.6H800.76L832.632 199.36L836.088 236.992H839.928V121.6H868.152V256H822.648L790.392 178.048L787.32 140.608H783.48V256Z" fill="#313131"/>
<path d="M973.614 256H921.966L883.95 121.6H917.742L944.814 223.168L945.774 237.76H949.614L950.766 223.168L977.838 121.6H1011.44L973.614 256Z" fill="#313131"/>
<path d="M1111.42 256H1026.94V121.6H1111.42V150.4H1058.23V174.784H1109.5V202.624H1058.23V227.2H1111.42V256Z" fill="#313131"/>
<path d="M1200.59 256L1173.32 203.776H1166.98V256H1135.69V121.6H1191.75C1200.97 121.6 1208.97 123.264 1215.75 126.592C1222.54 129.792 1227.72 134.464 1231.3 140.608C1234.63 146.496 1236.3 153.216 1236.3 160.768C1236.3 168.32 1234.7 174.72 1231.5 179.968C1228.81 184.704 1224.71 188.48 1219.21 191.296C1213.83 194.112 1207.5 196.032 1200.2 197.056V199.936L1208.84 202.624L1237.26 256H1200.59ZM1166.98 149.056V179.008H1187.53C1194.95 179.008 1200.01 176.576 1202.7 171.712C1203.98 169.408 1204.62 166.784 1204.62 163.84C1204.62 160.768 1204.04 158.208 1202.89 156.16C1200.07 151.424 1194.95 149.056 1187.53 149.056H1166.98Z" fill="#313131"/>
<path d="M1308.47 259.456C1295.67 259.456 1284.34 255.936 1274.49 248.896C1264.63 241.728 1257.53 232.064 1253.18 219.904C1249.98 211.072 1248.38 201.216 1248.38 190.336C1248.38 179.456 1249.98 169.792 1253.18 161.344C1258.04 147.904 1266.1 137.344 1277.37 129.664C1288.76 121.984 1302.33 118.144 1318.07 118.144C1329.59 118.144 1339.96 120.256 1349.18 124.48C1358.39 128.704 1365.69 134.72 1371.06 142.528C1376.57 150.208 1379.7 159.04 1380.47 169.024H1348.02C1346.74 162.112 1343.35 156.736 1337.85 152.896C1332.47 148.928 1325.81 146.944 1317.88 146.944C1309.69 146.944 1302.65 149.056 1296.76 153.28C1291 157.504 1286.77 163.328 1284.09 170.752C1282.17 176.256 1281.21 182.72 1281.21 190.144C1281.21 197.952 1282.23 204.672 1284.28 210.304C1286.97 217.344 1291 222.912 1296.38 227.008C1301.88 230.976 1308.41 232.96 1315.96 232.96C1324.15 232.96 1330.94 230.72 1336.31 226.24C1341.82 221.632 1345.01 215.744 1345.91 208.576H1313.27V182.848H1375.67V256H1348.41L1354.55 228.544H1350.71C1347.38 238.528 1342.2 246.208 1335.16 251.584C1328.12 256.832 1319.22 259.456 1308.47 259.456Z" fill="#313131"/>
<path d="M1487.17 256H1402.69V121.6H1487.17V150.4H1433.98V174.784H1485.25V202.624H1433.98V227.2H1487.17V256Z" fill="#313131"/>
<path d="M1539.86 256H1511.44V121.6H1557.14L1589.01 199.36L1592.46 236.992H1596.3V121.6H1624.53V256H1579.02L1546.77 178.048L1543.7 140.608H1539.86V256Z" fill="#313131"/>
<path d="M1713.48 259.456C1698.37 259.456 1685.13 255.616 1673.73 247.936C1662.47 240.256 1654.4 229.696 1649.54 216.256C1646.6 207.808 1645.12 198.656 1645.12 188.8C1645.12 178.944 1646.6 169.792 1649.54 161.344C1654.4 147.904 1662.53 137.344 1673.93 129.664C1685.32 121.984 1698.76 118.144 1714.25 118.144C1726.15 118.144 1736.71 120.256 1745.93 124.48C1755.27 128.704 1762.63 134.784 1768 142.72C1773.51 150.656 1776.65 159.936 1777.41 170.56H1744.77C1743.75 163.392 1740.48 157.696 1734.98 153.472C1729.48 149.12 1722.57 146.944 1714.25 146.944C1706.44 146.944 1699.59 149.12 1693.7 153.472C1687.81 157.696 1683.52 163.52 1680.84 170.944C1678.92 175.808 1677.96 181.76 1677.96 188.8C1677.96 195.584 1678.92 201.536 1680.84 206.656C1683.4 213.952 1687.62 219.776 1693.51 224.128C1699.4 228.352 1706.18 230.464 1713.86 230.464C1721.8 230.464 1728.33 228.352 1733.45 224.128C1738.69 219.904 1741.83 214.208 1742.85 207.04H1775.49C1774.72 217.28 1771.72 226.368 1766.47 234.304C1761.22 242.24 1754.05 248.448 1744.96 252.928C1735.88 257.28 1725.38 259.456 1713.48 259.456Z" fill="#313131"/>
<path d="M1882.04 256H1797.56V121.6H1882.04V150.4H1828.86V174.784H1880.12V202.624H1828.86V227.2H1882.04V256Z" fill="#313131"/>
<path fill-rule="evenodd" clip-rule="evenodd" d="M262.877 237.188C249.318 250.669 230.632 259 210 259C168.579 259 135 225.421 135 184C135 142.579 168.579 109 210 109C230.632 109 249.318 117.331 262.877 130.812L294.697 98.9919C272.994 77.3675 243.058 64 210 64C143.726 64 90 117.726 90 184C90 250.274 143.726 304 210 304C243.058 304 272.994 290.633 294.697 269.008L262.877 237.188Z" fill="#EB5757"/>
<path fill-rule="evenodd" clip-rule="evenodd" d="M312.587 121.708L250.295 184L312.587 246.292C323.636 228.134 330 206.81 330 184C330 161.19 323.636 139.867 312.587 121.708Z" fill="#6D6EF3"/>
</svg>
