<svg width="400" height="146" viewBox="0 0 400 146" fill="none" xmlns="http://www.w3.org/2000/svg">
<path fill-rule="evenodd" clip-rule="evenodd" d="M72.7908 24.8962C92.5108 24.8163 111.071 36.9641 118.2 56.55C126.01 78.0094 117.569 101.45 99.175 113.361C99.463 113.171 99.7498 112.972 100.041 112.764C83.2299 107.746 67.9603 93.6108 61.924 77.0262C55.8715 60.397 58.4706 39.8594 68.1067 25.1642C67.2818 25.262 66.4121 25.3761 65.5424 25.4901L65.5423 25.4901L65.5423 25.4901C56.3533 40.5794 53.994 61.0804 60.0465 77.7096C66.1153 94.3835 81.1004 108.572 97.8672 114.163C98.0628 114.053 98.2543 113.94 98.4433 113.825C96.802 114.846 95.0843 115.777 93.2945 116.607C94.0604 116.237 94.7962 115.874 95.555 115.461C78.8372 110.561 63.339 93.0158 58.0186 78.3982C52.7187 63.8368 53.3244 40.5048 62.898 25.9738C65.3909 25.4353 67.8925 25.1028 70.3823 24.9668C60.348 41.0209 57.8853 59.6757 63.9177 76.2497C69.954 92.8342 83.8454 105.547 101.868 111.39C102.502 110.907 103.136 110.423 103.754 109.894C85.7268 104.457 71.7827 92.0168 65.8115 75.611C59.8435 59.2142 62.5225 40.732 72.7908 24.8962ZM60.1776 26.6449C59.1886 26.9196 58.2022 27.2275 57.2197 27.5692C48.4231 41.2071 49.2812 66.4968 54.1279 79.8129C58.9924 93.1779 74.7372 113.212 90.3037 117.875C91.2279 117.52 92.1349 117.138 93.0244 116.732C86.1573 114.27 79.1152 109.799 72.7347 103.67C65.2543 96.4699 59.1999 87.4856 56.1411 79.0815C53.0823 70.6775 51.9899 59.8872 53.0923 49.5636C54.0117 40.8317 56.5301 32.8826 60.1776 26.6449ZM89.4578 118.186L90.1869 117.92C89.9441 118.013 89.7001 118.104 89.455 118.193C89.1147 118.317 88.7739 118.437 88.4326 118.553C88.7822 118.431 89.1243 118.307 89.4555 118.186L89.4573 118.186L89.4578 118.186ZM87.3405 118.906C87.4101 118.885 87.4795 118.864 87.5488 118.843C86.2736 119.248 84.9929 119.598 83.7094 119.892C70.4606 114.866 55.0003 94.3139 50.2224 81.1869C45.4911 68.1877 44.1004 42.6994 50.8637 30.2997C51.9735 29.7257 53.1133 29.191 54.282 28.6981C51.1702 34.5893 49.178 42.4445 48.6287 51.4906C48.0831 61.814 49.4315 72.6124 52.2951 80.48C55.1587 88.3476 61.0668 97.4865 68.1489 104.983C74.4262 111.659 81.0727 116.428 87.3405 118.906ZM41.3004 36.8238C39.9563 38.0033 38.6853 39.2523 37.491 40.563C35.7598 53.7083 39.2481 75.2216 42.4328 83.9714C45.6543 92.8224 56.9952 111.881 66.8821 120.685C65.7644 120.535 64.6304 120.34 63.5411 120.129C53.7148 110.24 43.5612 92.7743 40.6 84.6385C37.6928 76.6511 34.2274 57.0127 35.2903 43.1572C34.1141 44.6474 33.0292 46.2032 32.0401 47.8151C32.4547 61.0272 36.2207 79.004 38.5443 85.388C40.9035 91.8699 49.736 108.348 57.9935 118.657C56.8392 118.267 55.6685 117.832 54.5426 117.381C46.4352 106.512 38.6965 91.5088 36.7115 86.0551C34.7636 80.7034 31.0973 64.5388 30.2207 51.0524C29.346 52.7587 28.5729 54.5164 27.9063 56.3152C29.6376 68.4397 32.9606 82.1567 34.6522 86.8043C36.3422 91.4474 42.7615 104.367 49.2995 114.836C56.9785 119.181 65.8151 121.41 74.8348 121.068C73.9622 121.099 73.0802 121.103 72.1888 121.082C60.2779 112.558 47.8435 92.582 44.4592 83.2839C41.0937 74.0371 37.789 51.0684 41.3004 36.8238ZM43.9906 34.6311C39.6576 47.3103 42.419 71.8366 46.3367 82.6005C50.29 93.4621 64.1612 114.329 75.6604 121.03C77.215 120.944 78.7742 120.781 80.333 120.54C73.3938 117.041 67.1084 110.475 63.52 106.316C56.8198 98.4784 51.0254 89.0957 48.3896 81.8539C45.7538 74.6122 44.1615 63.7001 44.256 53.389C44.3032 47.9563 44.9627 39.0623 47.8973 31.9701C46.5431 32.7974 45.2401 33.6861 43.9906 34.6311ZM26.8557 59.4807C24.0612 68.9858 24.1664 79.4329 27.8117 89.4485C31.3406 99.1441 37.6709 107.017 45.5565 112.486C39.4338 102.179 34.0538 90.8628 32.8194 87.4713C31.5992 84.1187 28.5352 72.2234 26.5891 60.4782C26.6729 60.1471 26.7619 59.8141 26.8557 59.4807ZM55.9056 26.0171C29.9783 35.4539 16.5869 64.172 26.0236 90.0993C35.4441 115.982 64.1785 129.418 90.1058 119.981C116.033 110.545 129.408 81.7818 119.988 55.8991C110.551 29.9718 81.7883 16.5966 55.9056 26.0171ZM30.7454 88.1724C29.5414 84.8645 27.2507 76.4846 25.2444 67.495C24.9768 69.8199 24.8759 72.1853 24.9701 74.5304C26.5652 81.1384 28.1479 86.7385 28.9126 88.8395C29.7098 91.0299 32.1622 96.516 35.2692 102.827C36.7491 104.668 38.3306 106.37 40.03 107.979C35.695 99.6851 31.9656 91.5251 30.7454 88.1724Z" fill="#F4C23A"/>
<path d="M160.86 95H151.44V53H166.92L174.48 83.18L174.84 89.06H175.98L176.34 83.18L183.9 53H199.38V95H189.96V58.94H188.76L188.34 68.36L181.5 95H169.38L162.48 68.36L162.06 58.94H160.86V95ZM221.416 95.9C218.576 95.9 216.036 95.36 213.796 94.28C211.556 93.16 209.736 91.58 208.336 89.54C206.536 86.86 205.636 83.72 205.636 80.12C205.636 76.52 206.536 73.38 208.336 70.7C209.736 68.66 211.556 67.1 213.796 66.02C216.036 64.9 218.576 64.34 221.416 64.34C224.256 64.34 226.796 64.9 229.036 66.02C231.316 67.1 233.156 68.66 234.556 70.7C236.356 73.38 237.256 76.52 237.256 80.12C237.256 83.72 236.356 86.86 234.556 89.54C233.156 91.58 231.316 93.16 229.036 94.28C226.796 95.36 224.256 95.9 221.416 95.9ZM221.416 87.8C223.576 87.8 225.256 86.92 226.456 85.16C227.376 83.88 227.836 82.2 227.836 80.12C227.836 78.04 227.376 76.36 226.456 75.08C225.256 73.32 223.576 72.44 221.416 72.44C220.376 72.44 219.416 72.68 218.536 73.16C217.656 73.6 216.936 74.24 216.376 75.08C215.456 76.44 214.996 78.12 214.996 80.12C214.996 82.08 215.456 83.76 216.376 85.16C216.936 86 217.656 86.66 218.536 87.14C219.416 87.58 220.376 87.8 221.416 87.8ZM256.631 95.9C253.791 95.9 251.251 95.36 249.011 94.28C246.771 93.16 244.951 91.58 243.551 89.54C241.751 86.86 240.851 83.72 240.851 80.12C240.851 76.52 241.751 73.38 243.551 70.7C244.951 68.66 246.771 67.1 249.011 66.02C251.251 64.9 253.791 64.34 256.631 64.34C259.471 64.34 262.011 64.9 264.251 66.02C266.531 67.1 268.371 68.66 269.771 70.7C271.571 73.38 272.471 76.52 272.471 80.12C272.471 83.72 271.571 86.86 269.771 89.54C268.371 91.58 266.531 93.16 264.251 94.28C262.011 95.36 259.471 95.9 256.631 95.9ZM256.631 87.8C258.791 87.8 260.471 86.92 261.671 85.16C262.591 83.88 263.051 82.2 263.051 80.12C263.051 78.04 262.591 76.36 261.671 75.08C260.471 73.32 258.791 72.44 256.631 72.44C255.591 72.44 254.631 72.68 253.751 73.16C252.871 73.6 252.151 74.24 251.591 75.08C250.671 76.44 250.211 78.12 250.211 80.12C250.211 82.08 250.671 83.76 251.591 85.16C252.151 86 252.871 86.66 253.751 87.14C254.631 87.58 255.591 87.8 256.631 87.8ZM278.286 95V65.24H287.586L285.366 73.1H286.566C288.286 67.26 291.586 64.34 296.466 64.34C299.866 64.34 302.426 65.34 304.146 67.34C305.906 69.3 306.786 72.18 306.786 75.98V95H297.486V77.96C297.486 74.56 296.006 72.86 293.046 72.86C291.366 72.86 290.026 73.44 289.026 74.6C288.066 75.76 287.586 77.38 287.586 79.46V95H278.286ZM323.504 95H314.204V53H323.504V95ZM340.847 95H331.547V65.24H340.847V95ZM341.147 61.58H331.307V53.78H341.147V61.58ZM374.811 72.74H360.291V84.5C360.291 85.62 360.511 86.48 360.951 87.08C361.431 87.64 362.051 87.92 362.811 87.92C363.731 87.92 364.391 87.62 364.791 87.02C365.231 86.42 365.451 85.44 365.451 84.08V79.76H374.811V84.32C374.811 87.88 373.711 90.7 371.511 92.78C369.351 94.86 366.411 95.9 362.691 95.9C358.851 95.9 355.931 94.94 353.931 93.02C351.971 91.1 350.991 88.32 350.991 84.68V72.74H345.591V65.24H350.991V60.8L360.291 56.66V65.24H374.811V72.74Z" fill="black"/>
</svg>
